<?xml version="1.0" encoding="utf-8"?>
<!-- Svg Vector Icons : http://www.onlinewebfonts.com/icon -->
<!DOCTYPE svg PUBLIC "-//W3C//DTD SVG 1.1//EN" "http://www.w3.org/Graphics/SVG/1.1/DTD/svg11.dtd">
<svg version="1.1" xmlns="http://www.w3.org/2000/svg" xmlns:xlink="http://www.w3.org/1999/xlink" x="0px" y="0px" viewBox="0 0 1000 1000" enable-background="new 0 0 1000 1000" xml:space="preserve">
<metadata> Svg Vector Icons : http://www.onlinewebfonts.com/icon </metadata>
<g><path d="M982.9,901.9L861.4,780.4c28.3-47.9,46.5-87.8,46.5-143.2c0-132.5-107.4-239.9-239.9-239.9c-132.5,0-239.9,107.4-239.9,239.9c0,132.5,108,252.8,239.9,239.9c53.9-5.3,102.6-14.9,143.2-46.5l121.5,121.6c11.7,11.7,34.6,7.8,46.3-3.9C990.7,936.5,994.6,913.6,982.9,901.9L982.9,901.9z M498.3,637.2c0-93.7,76-169.7,169.7-169.7c93.7,0,169.7,76,169.7,169.7s-76,169.7-169.7,169.7C574.3,806.9,498.3,730.9,498.3,637.2L498.3,637.2z"/><path d="M756,121.5c0-44.6-36.2-80.8-80.8-80.8H90.8C46.1,40.8,10,76.9,10,121.5v330.2v13v413.8c0,44.6,36.2,80.8,80.8,80.8h58.9l0.5-0.6c2.1,0.4,4.3,0.6,6.6,0.6h290.3c19.5,0,35.3-15.8,35.3-35.3c0-19.5-15.8-35.3-35.3-35.3H209.4h-52.6H121c-22.3,0-40.4-18.1-40.4-40.4V464.7v-13V151.8c0-22.3,18.1-40.4,40.4-40.4H645c22.3,0,40.4,18.1,40.4,40.4v142.9h0c0,0,0,0.1,0,0.1c0,19.5,15.8,35.3,35.3,35.3s35.3-15.8,35.3-35.3c0,0,0-0.1,0-0.1h0L756,121.5L756,121.5z"/><path d="M146.3,259.5c0,19.5,15.8,35.3,35.3,35.3h404c19.5,0,35.3-15.8,35.3-35.3l0,0c0-19.5-15.8-35.3-35.3-35.3h-404C162.2,224.1,146.3,240,146.3,259.5L146.3,259.5z"/><path d="M146.3,474c0,19.5,15.8,35.3,35.3,35.3h197.1c19.5,0,35.3-15.8,35.3-35.3l0,0c0-19.5-15.8-35.3-35.3-35.3H181.7C162.2,438.7,146.3,454.5,146.3,474L146.3,474z"/><path d="M146.3,682.4c0,19.5,15.8,35.3,35.3,35.3h128.1c19.5,0,35.3-15.8,35.3-35.3l0,0c0-19.5-15.8-35.3-35.3-35.3H181.7C162.2,647.1,146.3,662.9,146.3,682.4L146.3,682.4z"/></g>
</svg>